<svg width="340" height="340" viewBox="0 0 340 340" fill="none" xmlns="http://www.w3.org/2000/svg">
<path fill-rule="evenodd" clip-rule="evenodd" d="M281.045 22H52.0683C51.334 26 50.334 30 50.334 30H282.834C281.834 26 281.045 22 281.045 22ZM49.1777 35H284.115L286.834 45H286.724H46.334C46.334 45 47.834 40.5 49.1777 35ZM165.834 290V123.795L256.083 290.014L256.131 289.988V290H284.456L284.923 290.154C308.465 219.005 313.751 132.674 288.547 50.2373L288.53 50.2426L288.459 50H250.334C252.334 55 254.334 61.5 254.334 61.5L254.344 61.4975C271.431 117.854 272.835 176.52 263.197 229.766L165.834 50.4445V50H165.593L165.592 49.9999L130.834 50V290H165.834ZM64.1452 86C51.9724 137.722 49.6362 193.74 63.2674 254H34.834C34.834 254 37.334 265 39.334 272C41.3013 278.886 44.834 290 44.834 290H73.1947L73.2176 290.07L73.434 290H125.834V254H100.273C85.0792 193.282 87.8563 137.46 101.228 86H125.834V50H44.834C44.834 50 41.1069 60.8668 39.334 68C37.6066 74.9496 34.834 86 34.834 86H64.1452ZM280.084 305H49.084C47.834 300 46.4121 295 46.4121 295H283.178C283.178 295 281.334 300 280.084 305ZM51.834 318H277.443C278.334 313.5 279.146 310 279.146 310H50.2558C50.2558 310 51.334 314 51.834 318Z" fill="#134E4A"/>
</svg>
