<svg width="340" height="340" viewBox="0 0 340 340" fill="none" xmlns="http://www.w3.org/2000/svg">
<path fill-rule="evenodd" clip-rule="evenodd" d="M281.045 22H52.0682C51.3339 26 50.3339 30 50.3339 30H282.834C281.834 26 281.045 22 281.045 22ZM49.1776 35H284.115L286.834 45H286.724H46.3339C46.3339 45 47.8339 40.5 49.1776 35ZM165.834 290V123.795L256.083 290.014L256.131 289.988L256.131 290H284.456L284.923 290.154C308.465 219.005 313.751 132.674 288.547 50.2373L288.53 50.2426L288.459 50H250.334C252.334 55 254.334 61.5 254.334 61.5L254.344 61.4975C271.431 117.854 272.835 176.52 263.197 229.766L165.834 50.4445V50H165.593L165.592 49.9999L165.592 50H130.834V290H165.834ZM64.1451 86C51.9723 137.722 49.6361 193.74 63.2673 254H34.8339C34.8339 254 37.3339 265 39.3339 272C41.3012 278.886 44.8339 290 44.8339 290H73.1946L73.2175 290.07L73.4339 290H125.834V254H100.273C85.0791 193.282 87.8562 137.46 101.228 86H125.834V50H44.8339C44.8339 50 41.1068 60.8668 39.3339 68C37.6065 74.9496 34.8339 86 34.8339 86H64.1451ZM280.084 305H49.0839C47.8339 300 46.412 295 46.412 295H283.178C283.178 295 281.334 300 280.084 305ZM51.8339 318H277.443C278.334 313.5 279.146 310 279.146 310H50.2557C50.2557 310 51.3339 314 51.8339 318Z" fill="white"/>
</svg>
